<?xml version="1.0" encoding="utf-8"?>
<!-- Generator: Adobe Illustrator 21.1.0, SVG Export Plug-In . SVG Version: 6.00 Build 0)  -->
<svg version="1.1" xmlns="http://www.w3.org/2000/svg" xmlns:xlink="http://www.w3.org/1999/xlink" x="0px" y="0px"
	 viewBox="0 0 500 500" style="enable-background:new 0 0 500 500;" xml:space="preserve">
<style type="text/css">
	.st0{fill:none;}
	.st1{fill:#FFFFFF;}
	.st2{fill:#73DBD6;}
	.st3{opacity:0.11;fill:url(#SVGID_1_);}
	.st4{opacity:0.48;fill:#73DBD6;}
	.st5{fill:#F8FFFF;}
	.st6{fill:#62408A;}
	.st7{opacity:0.27;fill:#62408A;}
	.st8{fill:#F26697;}
	.st9{opacity:0.36;fill:#F26697;}
	.st10{fill:#FFE473;}
	.st11{opacity:0.56;fill:#FFE473;}
	.st12{opacity:0.28;fill:#F26697;}
	.st13{opacity:0.41;fill:#F26697;}
	.st14{opacity:0.28;fill:#FFE473;}
	.st15{opacity:0.41;fill:#FFE473;}
</style>
<pattern  x="-150" y="-150" width="60" height="60" patternUnits="userSpaceOnUse" id="pattern" viewBox="65.1 -125.1 60 60" style="overflow:visible;">
	<g>
		<rect x="65.1" y="-125.1" class="st0" width="60" height="60"/>
		
			<rect x="110.3" y="-43" transform="matrix(0.7071 0.7071 -0.7071 0.7071 19.6894 -122.1708)" class="st1" width="94.1" height="11.4"/>
		
			<rect x="50.3" y="-43" transform="matrix(0.7071 0.7071 -0.7071 0.7071 2.1159 -79.7444)" class="st1" width="94.1" height="11.4"/>
		
			<rect x="-9.7" y="-43" transform="matrix(0.7071 0.7071 -0.7071 0.7071 -15.4577 -37.3181)" class="st1" width="94.1" height="11.4"/>
		
			<rect x="110.3" y="-103" transform="matrix(0.7071 0.7071 -0.7071 0.7071 -22.7369 -139.7443)" class="st1" width="94.1" height="11.4"/>
		
			<rect x="50.3" y="-103" transform="matrix(0.7071 0.7071 -0.7071 0.7071 -40.3105 -97.318)" class="st1" width="94.1" height="11.4"/>
		
			<rect x="-9.7" y="-103" transform="matrix(0.7071 0.7071 -0.7071 0.7071 -57.884 -54.8916)" class="st1" width="94.1" height="11.4"/>
		
			<rect x="110.3" y="-163" transform="matrix(0.7071 0.7071 -0.7071 0.7071 -65.1633 -157.3178)" class="st1" width="94.1" height="11.4"/>
		
			<rect x="50.3" y="-163" transform="matrix(0.7071 0.7071 -0.7071 0.7071 -82.7368 -114.8915)" class="st1" width="94.1" height="11.4"/>
		
			<rect x="-9.7" y="-163" transform="matrix(0.7071 0.7071 -0.7071 0.7071 -100.3103 -72.4651)" class="st1" width="94.1" height="11.4"/>
	</g>
</pattern>
<g id="BACKGROUND">
	<rect class="st2" width="500" height="500"/>
	<pattern  id="SVGID_1_" xlink:href="#pattern" patternTransform="matrix(0.4642 0 0 0.4527 -4073.4734 -3980.6982)">
	</pattern>
	<rect class="st3" width="500" height="500"/>
</g>
<g id="OBJECTS">
	<g>
		<path class="st4" d="M124.2,218.7c1.3,1.1,8.1,10,12.8,8.6c4.5-1.3,4.3-14.4,5.2-15c0.9-0.6,11.3-5.5,10.7-10.5
			c-0.6-4.8-12.6-6.5-12.6-7.9c0-1.4-0.4-12-4.7-13.2c-4.3-1.2-11.4,6.5-12.8,6.9c-1.5,0.4-11.5-1.7-13.6,1.6
			c-2,3.2,3.8,12.2,3.8,13.8c0,1.9-7.5,10.7-3.8,14.5C112.8,221.3,123.3,217.9,124.2,218.7z"/>
		<path class="st5" d="M122,212.4c1.3,1.1,8.1,10,12.8,8.6c4.5-1.3,4.3-14.4,5.2-15c0.9-0.6,11.3-5.5,10.7-10.5
			c-0.6-4.8-12.6-6.5-12.6-7.9c0-1.4-0.4-12-4.7-13.2c-4.3-1.2-11.4,6.5-12.8,6.9c-1.5,0.4-11.5-1.7-13.6,1.6
			c-2,3.2,3.8,12.2,3.8,13.8c0,1.9-7.5,10.7-3.8,14.5C110.6,215,121.1,211.6,122,212.4z"/>
		<path class="st4" d="M404.7,309.8c2,0.8,14.2,8.3,19.1,4.5c4.8-3.7-1.4-19.1-0.6-20.3c0.7-1.1,11-11.7,8-17.3
			c-2.9-5.5-18-2.1-18.6-3.7s-6-14.1-11.6-13.6c-5.7,0.5-10.6,12.9-12.2,14.1c-1.6,1.1-14.5,3.2-15.5,8.1
			c-0.9,4.7,10.1,12.8,10.9,14.8c0.9,2.2-4.1,16.2,2,19C392.3,318.1,403.3,309.3,404.7,309.8z"/>
		<path class="st5" d="M399.2,303.3c2,0.8,14.2,8.3,19.1,4.5c4.8-3.7-1.4-19.1-0.6-20.3c0.7-1.1,11-11.7,8-17.3
			c-2.9-5.5-18-2.1-18.6-3.7c-0.6-1.6-6-14.1-11.6-13.6c-5.7,0.5-10.6,12.9-12.2,14.1c-1.6,1.1-14.5,3.2-15.5,8.1
			c-0.9,4.7,10.1,12.8,10.9,14.8c0.9,2.2-4.1,16.2,2,19C386.8,311.7,397.8,302.8,399.2,303.3z"/>
		<g>
			<path class="st6" d="M90.4,309c-1.2-3.7-19.2-2.8-21.5-0.2c-2.3,2.6,1.7,12.6,4.1,14.2C75.5,324.5,91.1,311,90.4,309z"/>
			<path class="st7" d="M69.7,317.6c1,2.5,2.3,4.7,3.3,5.3c2.3,1.5,17.1-11.1,17.4-13.7C83.7,312.6,76.9,315.8,69.7,317.6z"/>
		</g>
		<g>
			<path class="st6" d="M74.6,146.5c-1.4-1.9-11.8,2-12.7,4s3.4,7.1,5.1,7.6C68.7,158.5,75.4,147.6,74.6,146.5z"/>
			<path class="st7" d="M64,155.5c1.1,1.3,2.2,2.3,3,2.5c1.7,0.5,7.9-9.8,7.6-11.4C71.3,149.9,67.9,153.1,64,155.5z"/>
		</g>
		<g>
			<path class="st6" d="M450,200c-1.1,1,1.9,7,3.2,7.4c1.3,0.4,4.1-2.5,4.3-3.6C457.6,202.9,450.6,199.5,450,200z"/>
			<path class="st7" d="M456.1,205.9c0.7-0.7,1.3-1.5,1.3-2c0.2-1-6.4-4.2-7.4-3.9C452.2,201.8,454.4,203.7,456.1,205.9z"/>
		</g>
		<g>
			<path class="st6" d="M170.2,37.8c-1.1,1,1.9,7,3.2,7.4c1.3,0.4,4.1-2.5,4.3-3.6C177.8,40.6,170.8,37.3,170.2,37.8z"/>
			<path class="st7" d="M176.3,43.6c0.7-0.7,1.3-1.5,1.3-2c0.2-1-6.4-4.2-7.4-3.9C172.5,39.6,174.6,41.4,176.3,43.6z"/>
		</g>
		<g>
			<path class="st6" d="M477.4,372.9c-1.4-1.9-11.8,2-12.7,4c-0.9,2,3.4,7.1,5.1,7.6C471.5,384.9,478.2,374,477.4,372.9z"/>
			<path class="st7" d="M466.8,381.9c1.1,1.3,2.2,2.3,3,2.5c1.7,0.5,7.9-9.8,7.6-11.4C474.1,376.3,470.7,379.5,466.8,381.9z"/>
		</g>
		<g>
			<path class="st6" d="M334.7,136.9c-1.3,4.4,13.3,10.8,15.5,10.1c2.2-0.7,4.7-9.4,3.2-10.9S335.3,134.8,334.7,136.9z"/>
			<path class="st7" d="M334.7,137.4c-0.1,4.4,13.4,10.3,15.6,9.5c1.3-0.4,2.7-3.6,3.3-6.4C347.2,139.5,341,138.5,334.7,137.4z"/>
		</g>
		<g>
			<path class="st8" d="M61.4,52.4c-2-1.1-8.5,3.8-7.5,5.4S66,67.7,67,66.7C69.3,64.7,63.3,53.4,61.4,52.4z"/>
			<path class="st9" d="M57.9,53.2c-2.3,1.3-4.6,3.6-4,4.6c0.9,1.6,12.1,9.8,13.1,8.9c0.6-0.5,0.6-1.5,0.4-2.8
				C64.2,60.3,61.1,56.8,57.9,53.2z"/>
		</g>
		<g>
			<path class="st8" d="M121.3,468.7c-1.7,1.6,1,9.2,2.8,8.9c1.8-0.4,13.1-8.5,12.5-9.7C135.4,465,122.8,467.3,121.3,468.7z"/>
			<path class="st9" d="M121,472.4c0.5,2.6,2,5.5,3.2,5.2c1.8-0.4,13.1-8.5,12.5-9.7c-0.3-0.7-1.3-1.1-2.6-1.2
				C129.7,468.5,125.3,470.4,121,472.4z"/>
		</g>
		<g>
			<path class="st8" d="M338.2,33.8c0.5-1.2-2.5-4.4-3.3-3.9c-0.8,0.6-4.8,7.1-4.2,7.6C331.9,38.7,337.7,34.9,338.2,33.8z"/>
			<path class="st9" d="M337.6,31.9c-0.8-1.2-2.2-2.3-2.7-2c-0.8,0.6-4.8,7.1-4.2,7.6c0.3,0.3,0.9,0.3,1.6,0.1
				C334,35.7,335.8,33.8,337.6,31.9z"/>
		</g>
		<g>
			<path class="st8" d="M270.6,437.2c0.5-1.2-2.5-4.4-3.3-3.9c-0.8,0.6-4.8,7.1-4.2,7.6C264.3,442,270.1,438.2,270.6,437.2z"/>
			<path class="st9" d="M270,435.3c-0.8-1.2-2.2-2.3-2.7-2c-0.8,0.6-4.8,7.1-4.2,7.6c0.3,0.3,0.9,0.3,1.6,0.1
				C266.4,439.1,268.2,437.2,270,435.3z"/>
		</g>
		<g>
			<path class="st8" d="M411,380.8c1.3,0.1,3.4-3.8,2.6-4.4c-0.8-0.6-8.2-2.3-8.5-1.6C404.3,376.3,409.8,380.7,411,380.8z"/>
			<path class="st9" d="M412.6,379.6c0.9-1.2,1.5-2.8,1-3.2c-0.8-0.6-8.2-2.3-8.5-1.6c-0.2,0.4,0,0.9,0.4,1.5
				C407.8,377.4,410.2,378.5,412.6,379.6z"/>
		</g>
		<path class="st5" d="M3.6,279.5c-0.3,0-0.6-0.2-0.7-0.5c-0.1-0.4,0.1-0.8,0.5-1c1.6-0.5,3.1-1.1,4.7-1.7c0.4-0.2,0.8,0,1,0.4
			c0.2,0.4,0,0.8-0.4,1c-1.6,0.6-3.1,1.2-4.7,1.7C3.8,279.5,3.7,279.5,3.6,279.5z M14.7,275c-0.3,0-0.5-0.2-0.7-0.4
			c-0.2-0.4,0-0.8,0.3-1c1.5-0.7,3-1.5,4.4-2.3c0.4-0.2,0.8-0.1,1,0.3c0.2,0.4,0.1,0.8-0.3,1c-1.5,0.8-3,1.6-4.5,2.3
			C14.9,275,14.8,275,14.7,275z M25.1,269.1c-0.2,0-0.5-0.1-0.6-0.3c-0.2-0.3-0.1-0.8,0.2-1c1.4-0.9,2.7-1.9,4-2.9
			c0.3-0.2,0.8-0.2,1.1,0.1c0.3,0.3,0.2,0.8-0.1,1.1c-1.3,1-2.7,2-4.1,2.9C25.4,269,25.3,269.1,25.1,269.1z M34.6,261.7
			c-0.2,0-0.4-0.1-0.5-0.2c-0.3-0.3-0.3-0.8,0-1.1c1.2-1.1,2.4-2.3,3.5-3.5c0.3-0.3,0.8-0.3,1.1,0c0.3,0.3,0.3,0.8,0,1.1
			c-1.1,1.2-2.3,2.4-3.6,3.6C35,261.6,34.8,261.7,34.6,261.7z M56,253.1c-0.9,0-1.7,0-2.5,0c-0.4,0-0.7-0.4-0.7-0.8
			c0-0.4,0.3-0.7,0.8-0.7c1.6,0.1,3.3,0.1,4.9,0c0.4,0,0.8,0.3,0.8,0.7c0,0.4-0.3,0.8-0.7,0.8C57.7,253,56.9,253.1,56,253.1z
			 M42.5,252.7c-0.1,0-0.3,0-0.4-0.1c-0.3-0.2-0.4-0.7-0.2-1c-0.1,0-0.3-0.1-0.4-0.1c-0.4-0.1-0.7-0.5-0.6-0.9
			c0.1-0.4,0.5-0.7,0.9-0.6c0.3,0.1,0.6,0.1,1,0.2c0.6-0.9,1.2-1.9,1.8-2.9c0.2-0.4,0.7-0.5,1-0.3c0.4,0.2,0.5,0.7,0.3,1
			c-0.5,0.8-1,1.6-1.5,2.5c0.8,0.1,1.5,0.3,2.3,0.4c0.4,0.1,0.7,0.4,0.6,0.8c-0.1,0.4-0.4,0.7-0.8,0.6c-1-0.1-2-0.3-3-0.5
			c-0.1,0.2-0.2,0.3-0.3,0.5C43,252.6,42.7,252.7,42.5,252.7z M65.5,252.4c-0.4,0-0.7-0.3-0.7-0.6c-0.1-0.4,0.2-0.8,0.6-0.8
			c1.6-0.2,3.3-0.5,4.9-0.9c0.4-0.1,0.8,0.2,0.9,0.6c0.1,0.4-0.2,0.8-0.6,0.9c-1.6,0.4-3.3,0.6-5,0.9
			C65.6,252.4,65.5,252.4,65.5,252.4z M77.2,249.7c-0.3,0-0.6-0.2-0.7-0.5c-0.1-0.4,0.1-0.8,0.5-0.9c1.6-0.5,3.1-1.1,4.6-1.7
			c0.4-0.2,0.8,0,1,0.4c0.2,0.4,0,0.8-0.4,1c-1.5,0.6-3.1,1.2-4.7,1.7C77.3,249.7,77.3,249.7,77.2,249.7z M34.9,249.5
			c-0.1,0-0.2,0-0.3,0c-1.6-0.6-3.2-1.3-4.7-2c-0.4-0.2-0.5-0.6-0.3-1c0.2-0.4,0.6-0.5,1-0.3c1.4,0.7,2.9,1.4,4.5,1.9
			c0.4,0.1,0.6,0.6,0.4,1C35.5,249.3,35.2,249.5,34.9,249.5z M88.2,245c-0.3,0-0.5-0.1-0.7-0.4c-0.2-0.4-0.1-0.8,0.3-1
			c1.4-0.8,2.9-1.6,4.2-2.5c0.3-0.2,0.8-0.1,1,0.2c0.2,0.3,0.1,0.8-0.2,1c-1.4,0.9-2.9,1.8-4.3,2.6C88.4,245,88.3,245,88.2,245z
			 M24.4,243.9c-0.2,0-0.3,0-0.5-0.2c-1.4-1.1-2.7-2.2-3.8-3.4c-0.3-0.3-0.3-0.8,0-1.1c0.3-0.3,0.8-0.3,1.1,0c1,1.1,2.3,2.2,3.6,3.3
			c0.3,0.3,0.4,0.7,0.1,1.1C24.8,243.8,24.6,243.9,24.4,243.9z M48.1,242.1c-0.1,0-0.2,0-0.3,0c-0.4-0.1-0.6-0.6-0.4-1
			c0.6-1.5,1-3.1,1.4-4.7c0.1-0.4,0.5-0.7,0.9-0.6c0.4,0.1,0.7,0.5,0.6,0.9c-0.4,1.6-0.9,3.3-1.5,4.9
			C48.7,241.9,48.4,242.1,48.1,242.1z M98.1,238.3c-0.2,0-0.4-0.1-0.6-0.3c-0.3-0.3-0.2-0.8,0.1-1.1c1.3-1,2.5-2.2,3.7-3.3
			c0.3-0.3,0.8-0.3,1.1,0c0.3,0.3,0.3,0.8,0,1.1c-1.2,1.2-2.5,2.3-3.8,3.4C98.4,238.2,98.3,238.3,98.1,238.3z M16.8,234.7
			c-0.3,0-0.6-0.2-0.7-0.5c-0.7-1.6-1.1-3.3-1.3-5c0-0.4,0.3-0.8,0.7-0.8c0.4,0,0.8,0.3,0.8,0.7c0.2,1.6,0.6,3.1,1.2,4.6
			c0.2,0.4,0,0.8-0.4,1C17,234.7,16.9,234.7,16.8,234.7z M50.5,230.4C50.5,230.4,50.5,230.4,50.5,230.4c-0.4,0-0.8-0.4-0.8-0.8
			l0-0.5c0-1.5-0.1-2.9-0.4-4.3c-0.1-0.4,0.2-0.8,0.6-0.9c0.4-0.1,0.8,0.2,0.9,0.6c0.3,1.5,0.4,3,0.4,4.6l0,0.5
			C51.2,230.1,50.9,230.4,50.5,230.4z M106.6,229.8c-0.2,0-0.3-0.1-0.5-0.2c-0.3-0.3-0.4-0.7-0.1-1.1c1-1.3,2-2.6,3-3.9
			c0.2-0.3,0.7-0.4,1-0.2c0.3,0.2,0.4,0.7,0.2,1c-1,1.4-2,2.7-3.1,4C107,229.7,106.8,229.8,106.6,229.8z M16.1,222.9
			c-0.1,0-0.1,0-0.2,0c-0.4-0.1-0.7-0.5-0.6-0.9c0.4-1.8,1-3.4,1.8-4.9c0.2-0.4,0.7-0.5,1-0.3c0.4,0.2,0.5,0.6,0.3,1
			c-0.7,1.4-1.3,2.9-1.6,4.5C16.8,222.7,16.5,222.9,16.1,222.9z M47.6,218.9c-0.3,0-0.5-0.1-0.6-0.4c-0.8-1.4-1.8-2.6-3-3.7
			c-0.3-0.3-0.3-0.8,0-1.1c0.3-0.3,0.8-0.3,1.1,0c1.3,1.2,2.4,2.5,3.3,4c0.2,0.4,0.1,0.8-0.3,1C47.9,218.9,47.7,218.9,47.6,218.9z
			 M22.3,213c-0.2,0-0.5-0.1-0.6-0.3c-0.2-0.3-0.2-0.8,0.2-1c1.4-1,3-1.8,4.7-2.3c0.4-0.1,0.8,0.1,0.9,0.5c0.1,0.4-0.1,0.8-0.5,0.9
			c-1.5,0.5-3,1.2-4.2,2.1C22.7,213,22.5,213,22.3,213z M38.6,211.4c-0.1,0-0.2,0-0.3-0.1c-1.5-0.6-3.1-1-4.6-1.2
			c-0.4,0-0.7-0.4-0.7-0.8c0-0.4,0.4-0.7,0.8-0.7c1.7,0.2,3.4,0.6,5,1.3c0.4,0.2,0.6,0.6,0.4,1C39.1,211.2,38.9,211.4,38.6,211.4z"
			/>
		<path class="st5" d="M370.1,143.2C370.1,143.2,370.1,143.2,370.1,143.2c-1.7,0-3.4-0.2-5.1-0.4c-0.4-0.1-0.7-0.4-0.6-0.8
			c0.1-0.4,0.4-0.7,0.8-0.6c1.6,0.2,3.3,0.4,4.9,0.4c0.4,0,0.7,0.3,0.7,0.8C370.8,142.9,370.5,143.2,370.1,143.2z M377,142.6
			c-0.4,0-0.7-0.3-0.7-0.6c-0.1-0.4,0.2-0.8,0.6-0.9c1.6-0.3,3.2-0.7,4.7-1.3c0.4-0.1,0.8,0.1,1,0.5c0.1,0.4-0.1,0.8-0.5,1
			c-1.6,0.6-3.2,1-4.9,1.3C377.1,142.6,377.1,142.6,377,142.6z M388.1,138.2c-0.2,0-0.5-0.1-0.6-0.3c-0.2-0.3-0.1-0.8,0.2-1
			c1.4-0.9,2.6-1.9,3.8-3c0.3-0.3,0.8-0.3,1.1,0c0.3,0.3,0.3,0.8,0,1.1c-1.2,1.2-2.6,2.2-4,3.2C388.4,138.2,388.3,138.2,388.1,138.2
			z M396.4,129.7c-0.1,0-0.3,0-0.4-0.1c-0.4-0.2-0.5-0.7-0.3-1c0.8-1.4,1.5-2.8,2.1-4.4c0.1-0.4,0.6-0.6,1-0.4
			c0.4,0.1,0.6,0.6,0.4,1c-0.6,1.6-1.4,3.2-2.2,4.6C396.9,129.6,396.7,129.7,396.4,129.7z M400.2,118.4
			C400.2,118.4,400.1,118.4,400.2,118.4c-0.5-0.1-0.8-0.4-0.7-0.8c0.1-0.6,0.1-1.3,0.2-2c0-0.6,0-1.2,0-1.8c0-0.4,0-0.8,0-1.1
			c0-0.4,0.3-0.8,0.7-0.8c0.5,0,0.8,0.3,0.8,0.7c0,0.4,0,0.8,0,1.2c0,0.6,0,1.2,0,1.9c0,0.7-0.1,1.4-0.2,2
			C400.9,118.1,400.6,118.4,400.2,118.4z M403.4,114.9c-0.4,0-0.7-0.3-0.7-0.7c0-0.4,0.3-0.8,0.7-0.8c1.6-0.1,3.2-0.4,4.8-0.8
			c0.4-0.1,0.8,0.2,0.9,0.6c0.1,0.4-0.2,0.8-0.6,0.9C406.8,114.5,405.1,114.8,403.4,114.9C403.4,114.9,403.4,114.9,403.4,114.9z
			 M396.4,114.8c0,0-0.1,0-0.1,0c-1.7-0.3-3.4-0.7-5-1.3c-0.4-0.1-0.6-0.6-0.4-1c0.1-0.4,0.6-0.6,1-0.4c1.5,0.6,3,1,4.7,1.2
			c0.4,0.1,0.7,0.4,0.6,0.9C397.1,114.5,396.8,114.8,396.4,114.8z M415,112c-0.3,0-0.6-0.2-0.7-0.5c-0.2-0.4,0-0.8,0.4-1
			c1.5-0.6,2.9-1.4,4.4-2.2c0.4-0.2,0.8-0.1,1,0.3c0.2,0.4,0.1,0.8-0.3,1c-1.5,0.9-3,1.7-4.5,2.3C415.2,112,415.1,112,415,112z
			 M385.6,110.1c-0.2,0-0.3-0.1-0.5-0.2c-1.4-1.2-2.5-2.5-3.5-3.9c-0.2-0.3-0.1-0.8,0.2-1c0.3-0.2,0.8-0.1,1,0.2
			c0.8,1.3,1.9,2.5,3.2,3.6c0.3,0.3,0.4,0.7,0.1,1.1C386,110,385.8,110.1,385.6,110.1z M399.4,106.5c-0.3,0-0.6-0.2-0.7-0.6
			c-0.4-1.6-1-3.1-1.7-4.5c-0.2-0.4,0-0.8,0.3-1c0.4-0.2,0.8,0,1,0.3c0.8,1.5,1.4,3.1,1.9,4.8c0.1,0.4-0.1,0.8-0.5,0.9
			C399.5,106.5,399.4,106.5,399.4,106.5z M425.1,105.6c-0.2,0-0.4-0.1-0.6-0.3c-0.3-0.3-0.2-0.8,0.1-1.1c1.2-1,2.4-2.1,3.6-3.3
			c0.3-0.3,0.8-0.3,1.1,0c0.3,0.3,0.3,0.8,0,1.1c-1.3,1.3-2.5,2.4-3.7,3.4C425.4,105.6,425.2,105.6,425.1,105.6z M380.1,99.8
			C380.1,99.8,380.1,99.8,380.1,99.8c-0.4,0-0.8-0.4-0.8-0.8c0.1-2.1,0.9-3.8,2.3-4.9l0.1-0.1c0.3-0.2,0.8-0.2,1.1,0.1
			c0.3,0.3,0.2,0.8-0.1,1.1l-0.1,0c-1.1,0.8-1.6,2.1-1.7,3.7C380.9,99.5,380.5,99.8,380.1,99.8z M433.5,97.1c-0.2,0-0.3-0.1-0.5-0.2
			c-0.3-0.3-0.4-0.7-0.1-1.1c1-1.1,2-2.4,3.2-3.8c0.3-0.3,0.7-0.4,1.1-0.1c0.3,0.3,0.4,0.7,0.1,1.1c-1.2,1.5-2.2,2.7-3.2,3.9
			C433.9,97,433.7,97.1,433.5,97.1z M393.2,96.4c-0.2,0-0.3-0.1-0.5-0.2c-1.3-1-2.7-1.8-4.1-2.1c-0.4-0.1-0.6-0.5-0.5-0.9
			c0.1-0.4,0.5-0.6,0.9-0.5c1.6,0.4,3.2,1.2,4.7,2.4c0.3,0.3,0.4,0.7,0.1,1.1C393.7,96.3,393.5,96.4,393.2,96.4z M441,87.7
			c-0.2,0-0.3-0.1-0.5-0.2c-0.3-0.3-0.4-0.7-0.1-1.1c1-1.3,2.1-2.6,3.1-3.9c0.3-0.3,0.7-0.4,1.1-0.1c0.3,0.3,0.4,0.7,0.1,1.1
			c-1.1,1.3-2.1,2.6-3.1,3.9C441.4,87.6,441.2,87.7,441,87.7z M448.7,78.5c-0.2,0-0.4-0.1-0.5-0.2c-0.3-0.3-0.3-0.8-0.1-1.1
			c1.2-1.3,2.3-2.5,3.5-3.6c0.3-0.3,0.8-0.3,1.1,0c0.3,0.3,0.3,0.8,0,1.1c-1.1,1.1-2.3,2.3-3.4,3.6
			C449.1,78.4,448.9,78.5,448.7,78.5z M457.3,70.2c-0.2,0-0.4-0.1-0.6-0.3c-0.3-0.3-0.2-0.8,0.1-1.1c1.3-1.1,2.7-2.1,4.1-3
			c0.3-0.2,0.8-0.1,1,0.2c0.2,0.3,0.1,0.8-0.2,1c-1.3,0.9-2.7,1.9-4,2.9C457.7,70.2,457.5,70.2,457.3,70.2z M467.5,63.9
			c-0.3,0-0.5-0.2-0.7-0.4c-0.2-0.4,0-0.8,0.4-1c0.3-0.2,0.6-0.3,1-0.5c1.2-0.6,2.5-1.1,3.7-1.5c0.4-0.1,0.8,0,1,0.4
			c0.2,0.4,0,0.8-0.4,1c-1.2,0.5-2.4,1-3.6,1.5c-0.3,0.1-0.6,0.3-0.9,0.4C467.7,63.9,467.6,63.9,467.5,63.9z M478.7,59.7
			c-0.3,0-0.6-0.2-0.7-0.6c-0.1-0.4,0.1-0.8,0.5-0.9c1.6-0.4,3.3-0.8,4.9-1.1c0.4-0.1,0.8,0.2,0.9,0.6c0.1,0.4-0.2,0.8-0.6,0.9
			c-1.6,0.3-3.2,0.7-4.8,1.1C478.8,59.7,478.8,59.7,478.7,59.7z M495.5,57.8C495.5,57.8,495.5,57.8,495.5,57.8c-1.6-0.1-3.3-0.1-5,0
			c-0.4,0-0.8-0.3-0.8-0.7c0-0.4,0.3-0.8,0.7-0.8c1.8-0.1,3.4-0.1,5.1,0c0.4,0,0.7,0.4,0.7,0.8C496.3,57.5,495.9,57.8,495.5,57.8z"
			/>
		<g>
			<path class="st10" d="M411.6,302.5c2-1.1-1.9-14.1-1.9-15.5c0-1.4,10.3-9.3,10-11.8c-0.3-2.5-15.4-1-15.9-1.5
				c-0.5-0.4-5.1-12.4-6.7-12.9c-1.6-0.5-6.3,12.2-7.1,12.6c-0.8,0.4-12.8-0.4-13.6,2.6c-0.8,2.9,9,10.5,9.6,11.6
				c0.6,1.1-3.7,12.1-1.4,13.9c2.2,1.7,13.3-6.3,14-6C399.5,295.9,410.1,303.3,411.6,302.5z"/>
			<path class="st11" d="M419.8,275.2c-0.3-2.5-15.4-1-15.9-1.5c-0.3-0.3-2.8-6.5-4.7-10.2c-1,13.4-5.9,26.3-15.1,36.2
				c0.1,0.8,0.2,1.5,0.7,1.8c2.2,1.7,13.3-6.3,14-6c0.7,0.4,11.3,7.8,12.9,7c2-1.1-1.9-14.1-1.9-15.5
				C409.7,285.6,420.1,277.7,419.8,275.2z"/>
		</g>
		<g>
			<path class="st10" d="M132.9,214.2c1.7-0.4,1.7-10.7,2-11.8c0.3-1,9.6-4.6,9.9-6.5c0.3-1.9-11.1-4.1-11.3-4.5
				c-0.2-0.4-1-10.2-2.1-10.9c-1.1-0.7-7.2,7.6-7.9,7.7c-0.7,0.1-9.3-3-10.5-1c-1.2,2,4.3,9.7,4.5,10.6c0.2,0.9-5.3,8-4,9.9
				c1.2,1.7,11.1-1.8,11.6-1.3C125.4,206.8,131.6,214.5,132.9,214.2z"/>
			<path class="st11" d="M118.3,187c-2.4-0.5-4.9-0.8-5.5,0.2c-1.2,2,4.3,9.7,4.5,10.6c0.2,0.9-5.3,8-4,9.9
				c1.2,1.7,11.1-1.8,11.6-1.3c0.4,0.4,6.6,8.2,7.9,7.9c1.2-0.3,1.6-5.6,1.7-9C127.2,201.3,121.3,194.7,118.3,187z"/>
		</g>
		<g>
			<path class="st8" d="M372.5,231.1c1.7,2.4,14.8-2.6,15.2-4.9c0.5-2.3-2.8-8.3-5.2-8.9C379.8,216.7,371,229,372.5,231.1z"/>
			<path class="st12" d="M381.2,217.7c-1.6,0.9-3.9,3.5-5.8,6.2C377.3,221.8,379.3,219.7,381.2,217.7z"/>
			<path class="st13" d="M372.8,231.4c2.6,1.7,14.5-3,14.9-5.2c0.3-1.7-1.3-5.4-3.2-7.5C380.6,222.9,376.6,227.1,372.8,231.4z"/>
		</g>
		<g>
			<path class="st10" d="M460.5,141.3c2.9-0.7,3-14.7,1.1-16s-8.8-0.5-10.2,1.5C449.8,129.1,457.9,141.9,460.5,141.3z"/>
			<path class="st14" d="M451.2,128.2c0.3,1.9,1.8,4.9,3.6,7.6C453.6,133.3,452.4,130.8,451.2,128.2z"/>
			<path class="st15" d="M460.9,141.1c2.5-1.8,2.5-14.5,0.7-15.8c-1.4-0.9-5.6-0.8-8.2,0.2C455.8,130.7,458.3,135.9,460.9,141.1z"/>
		</g>
		<g>
			<path class="st10" d="M67.7,397.4c0.5-3.5-14.8-9.5-17-7.9c-2.2,1.6-4.2,9.4-2.6,11.7C49.9,404,67.3,400.5,67.7,397.4z"/>
			<path class="st14" d="M49.5,402c2.2,0.5,6.2,0.1,9.9-0.7C56.1,401.5,52.8,401.8,49.5,402z"/>
			<path class="st15" d="M67.6,396.9c-0.9-3.5-14.8-8.9-16.9-7.4c-1.6,1.2-3.2,5.7-3.2,9C54.2,398.1,60.9,397.6,67.6,396.9z"/>
		</g>
		<g>
			<path class="st10" d="M386.6,431.4c-2.7,1.2-0.6,15,1.5,15.9s8.7-0.9,9.8-3.2C399.1,441.6,389,430.3,386.6,431.4z"/>
			<path class="st14" d="M397.9,442.7c-0.6-1.8-2.6-4.6-4.8-7C394.7,438.1,396.3,440.4,397.9,442.7z"/>
			<path class="st15" d="M386.3,431.6c-2.2,2.2-0.1,14.8,1.9,15.7c1.6,0.7,5.6-0.2,8-1.5C392.9,441,389.7,436.3,386.3,431.6z"/>
		</g>
		<g>
			<path class="st10" d="M148.9,112.7c0.4-2.5-10.6-7.1-12.3-6c-1.6,1.1-3.2,6.8-2,8.5C135.9,117.2,148.6,114.9,148.9,112.7z"/>
			<path class="st14" d="M135.7,115.8c1.6,0.4,4.5,0.1,7.2-0.4C140.5,115.6,138.1,115.7,135.7,115.8z"/>
			<path class="st15" d="M148.9,112.3c-0.6-2.6-10.7-6.7-12.2-5.6c-1.2,0.8-2.4,4.1-2.4,6.5C139.1,113,144,112.7,148.9,112.3z"/>
		</g>
		<path class="st5" d="M45.8,497.9c-0.4,0-0.7-0.3-0.7-0.7c-0.1-1.7-0.3-3.4-0.4-5c0-0.4,0.3-0.8,0.7-0.8c0.4,0,0.8,0.3,0.8,0.7
			c0.1,1.6,0.2,3.3,0.4,5C46.5,497.5,46.2,497.8,45.8,497.9C45.8,497.9,45.8,497.9,45.8,497.9z M45.1,485.9c-0.4,0-0.7-0.3-0.8-0.7
			c0-0.6,0-1.2,0-1.7c0-1.1,0-2.2,0-3.3c0-0.4,0.4-0.7,0.8-0.7c0.4,0,0.7,0.4,0.7,0.8c0,1.1,0,2.2,0,3.2c0,0.6,0,1.1,0,1.7
			C45.9,485.5,45.6,485.9,45.1,485.9C45.1,485.9,45.1,485.9,45.1,485.9z M45.5,473.9C45.5,473.9,45.5,473.9,45.5,473.9
			c-0.5,0-0.8-0.4-0.7-0.8c0.1-1.7,0.3-3.4,0.5-5c0-0.4,0.4-0.7,0.8-0.7c0.4,0,0.7,0.4,0.7,0.8c-0.2,1.6-0.3,3.3-0.4,5
			C46.2,473.6,45.9,473.9,45.5,473.9z M46.9,462c0,0-0.1,0-0.1,0c-0.4-0.1-0.7-0.5-0.6-0.9c0.3-1.7,0.6-3.3,0.9-4.9
			c0.1-0.4,0.5-0.7,0.9-0.6c0.4,0.1,0.7,0.5,0.6,0.9c-0.3,1.6-0.6,3.2-0.9,4.9C47.6,461.7,47.2,462,46.9,462z M49.4,450.3
			c-0.1,0-0.1,0-0.2,0c-0.4-0.1-0.6-0.5-0.5-0.9c0.4-1.6,0.9-3.2,1.4-4.8c0.1-0.4,0.5-0.6,0.9-0.5c0.4,0.1,0.6,0.5,0.5,0.9
			c-0.5,1.6-1,3.2-1.4,4.8C50,450,49.7,450.3,49.4,450.3z M92.6,447C92.5,447,92.5,447,92.6,447c-1.9-0.2-3.5-0.8-5.1-1.6
			c-0.4-0.2-0.5-0.6-0.3-1c0.2-0.4,0.6-0.5,1-0.3c1.4,0.7,2.9,1.2,4.5,1.4c0.4,0.1,0.7,0.4,0.6,0.8C93.2,446.7,92.9,447,92.6,447z
			 M99.5,446.4c-0.3,0-0.6-0.2-0.7-0.5c-0.1-0.4,0.1-0.8,0.5-0.9c1.5-0.5,3-1.2,4.3-2.1c0.3-0.2,0.8-0.1,1,0.2
			c0.2,0.3,0.1,0.8-0.2,1c-1.5,1-3,1.7-4.7,2.3C99.6,446.4,99.5,446.4,99.5,446.4z M82.5,441c-0.2,0-0.4-0.1-0.6-0.3
			c-1-1.3-1.9-2.8-2.6-4.5c-0.2-0.4,0-0.8,0.4-1c0.4-0.2,0.8,0,1,0.4c0.7,1.5,1.5,2.9,2.4,4.2c0.3,0.3,0.2,0.8-0.1,1.1
			C82.8,441,82.7,441,82.5,441z M108.9,439.3c-0.1,0-0.3,0-0.4-0.1c-0.3-0.2-0.4-0.7-0.2-1c0.9-1.3,1.6-2.8,2-4.3
			c0.1-0.4,0.5-0.6,0.9-0.5c0.4,0.1,0.6,0.5,0.5,0.9c-0.5,1.7-1.3,3.2-2.2,4.7C109.3,439.2,109.1,439.3,108.9,439.3z M53.1,438.9
			c-0.1,0-0.2,0-0.3-0.1c-0.4-0.2-0.6-0.6-0.4-1c0.6-1.6,1.3-3.1,2-4.6c0.2-0.4,0.6-0.5,1-0.4c0.4,0.2,0.5,0.6,0.4,1
			c-0.7,1.5-1.3,3-1.9,4.6C53.7,438.7,53.4,438.9,53.1,438.9z M78.1,430c-0.4,0-0.7-0.3-0.7-0.6c-0.2-1-0.3-2.2-0.4-3.3
			c-0.1-0.6-0.1-1.2-0.1-1.8c0-0.4,0.3-0.8,0.7-0.8c0.4,0,0.8,0.3,0.8,0.7c0,0.6,0.1,1.1,0.1,1.7c0.1,1.1,0.2,2.1,0.4,3.2
			c0.1,0.4-0.2,0.8-0.6,0.9C78.2,430,78.1,430,78.1,430z M58.2,428c-0.1,0-0.2,0-0.4-0.1c-0.4-0.2-0.5-0.7-0.3-1
			c0.8-1.5,1.7-2.9,2.6-4.3c0.2-0.3,0.7-0.4,1-0.2c0.3,0.2,0.4,0.7,0.2,1c-0.9,1.4-1.7,2.8-2.5,4.2C58.7,427.9,58.5,428,58.2,428z
			 M111.7,427.9c-0.4,0-0.7-0.3-0.7-0.7c-0.1-1.5-0.4-3.1-0.9-4.7c-0.1-0.4,0.1-0.8,0.5-0.9c0.4-0.1,0.8,0.1,0.9,0.5
			c0.5,1.7,0.8,3.4,1,5.1C112.5,427.5,112.2,427.8,111.7,427.9C111.8,427.9,111.7,427.9,111.7,427.9z M77.8,418.1
			C77.7,418.1,77.7,418.1,77.8,418.1c-0.5-0.1-0.8-0.4-0.7-0.8c0.2-1.7,0.5-3.4,0.9-5c0.1-0.4,0.5-0.6,0.9-0.5
			c0.4,0.1,0.6,0.5,0.5,0.9c-0.4,1.6-0.7,3.2-0.9,4.8C78.5,417.8,78.2,418.1,77.8,418.1z M64.9,418c-0.2,0-0.3-0.1-0.5-0.2
			c-0.3-0.3-0.4-0.7-0.1-1.1c1.1-1.3,2.2-2.6,3.4-3.8c0.3-0.3,0.8-0.3,1.1,0c0.3,0.3,0.3,0.8,0,1.1c-1.1,1.1-2.2,2.4-3.3,3.7
			C65.3,417.9,65.1,418,64.9,418z M107.9,416.6c-0.3,0-0.5-0.1-0.6-0.4c-0.7-1.1-1.4-2.2-2.2-3.4c-0.2-0.2-0.3-0.5-0.5-0.7
			c-0.3-0.3-0.2-0.8,0.1-1.1c0.3-0.3,0.8-0.2,1.1,0.1c0.2,0.2,0.4,0.5,0.6,0.7c0.9,1.2,1.6,2.3,2.3,3.5c0.2,0.4,0.1,0.8-0.3,1
			C108.2,416.6,108.1,416.6,107.9,416.6z M73.4,409.6c-0.2,0-0.5-0.1-0.6-0.3c-0.2-0.3-0.2-0.8,0.1-1c1.4-1.1,2.8-2,4.3-2.8
			c0.4-0.2,0.8-0.1,1,0.3c0.2,0.4,0.1,0.8-0.3,1c-1.4,0.8-2.7,1.7-4.1,2.7C73.7,409.6,73.6,409.6,73.4,409.6z M100.2,407.6
			c-0.2,0-0.3,0-0.4-0.1c-1.3-1-2.7-1.8-4.2-2.4c-0.4-0.2-0.6-0.6-0.4-1c0.2-0.4,0.6-0.6,1-0.4c1.6,0.6,3.1,1.5,4.5,2.6
			c0.3,0.2,0.4,0.7,0.2,1C100.6,407.5,100.4,407.6,100.2,407.6z M80.9,406.6c-0.1,0-0.2,0-0.3-0.1c-0.4-0.2-0.6-0.6-0.4-1
			c0.7-1.5,1.4-3,2.3-4.5c0.2-0.4,0.7-0.5,1-0.3c0.4,0.2,0.5,0.7,0.3,1c-0.8,1.4-1.6,2.9-2.2,4.4C81.5,406.4,81.2,406.6,80.9,406.6z
			 M84.1,404.3c-0.3,0-0.6-0.2-0.7-0.6c-0.1-0.4,0.1-0.8,0.6-0.9c1.7-0.4,3.4-0.6,5-0.6c0.4,0,0.8,0.3,0.8,0.8
			c0,0.4-0.3,0.8-0.7,0.8c0,0-0.1,0-0.1,0c-1.5,0-3.1,0.2-4.7,0.6C84.2,404.3,84.1,404.3,84.1,404.3z M87.1,396.3
			c-0.2,0-0.3-0.1-0.5-0.2c-0.3-0.3-0.4-0.7-0.1-1.1c1-1.3,2.1-2.6,3.3-3.8c0.3-0.3,0.8-0.3,1.1,0c0.3,0.3,0.3,0.8,0,1.1
			c-1.1,1.2-2.2,2.5-3.2,3.7C87.5,396.2,87.3,396.3,87.1,396.3z M95.4,387.7c-0.2,0-0.4-0.1-0.6-0.3c-0.3-0.3-0.2-0.8,0.1-1.1
			c1.2-1.1,2.6-2.1,3.9-3.2c0.3-0.2,0.8-0.2,1,0.2c0.2,0.3,0.2,0.8-0.2,1c-1.3,1-2.6,2-3.9,3.1C95.8,387.6,95.6,387.7,95.4,387.7z
			 M105.1,380.6c-0.2,0-0.5-0.1-0.6-0.4c-0.2-0.4-0.1-0.8,0.2-1c1.4-0.9,2.9-1.7,4.4-2.6c0.4-0.2,0.8-0.1,1,0.3
			c0.2,0.4,0.1,0.8-0.3,1c-1.5,0.8-2.9,1.7-4.3,2.5C105.4,380.6,105.3,380.6,105.1,380.6z M115.7,374.9c-0.3,0-0.6-0.2-0.7-0.4
			c-0.2-0.4,0-0.8,0.4-1c2.8-1.3,4.6-1.9,4.7-2c0.4-0.1,0.8,0.1,1,0.5c0.1,0.4-0.1,0.8-0.5,1c0,0-1.8,0.6-4.6,1.9
			C115.9,374.9,115.8,374.9,115.7,374.9z"/>
		<path class="st5" d="M496.9,427c0,0-0.1,0-0.1,0c-1.6-0.3-3.3-0.7-4.9-1.2c-0.4-0.1-0.6-0.5-0.5-0.9c0.1-0.4,0.5-0.6,0.9-0.5
			c1.6,0.4,3.2,0.8,4.8,1.1c0.4,0.1,0.7,0.5,0.6,0.9C497.5,426.7,497.2,427,496.9,427z M485.4,423.6c-0.1,0-0.2,0-0.3,0
			c-1.5-0.6-3.1-1.2-4.7-1.9c-0.4-0.2-0.5-0.6-0.4-1c0.2-0.4,0.6-0.5,1-0.4c1.5,0.7,3.1,1.3,4.6,1.9c0.4,0.1,0.6,0.6,0.4,1
			C486,423.4,485.7,423.6,485.4,423.6z M474.5,418.5c-0.1,0-0.2,0-0.4-0.1c-1.4-0.8-2.9-1.7-4.3-2.6c-0.4-0.2-0.5-0.7-0.2-1
			c0.2-0.4,0.7-0.5,1-0.2c1.4,0.9,2.9,1.7,4.3,2.5c0.4,0.2,0.5,0.7,0.3,1C475,418.4,474.8,418.5,474.5,418.5z M464.4,412.1
			c-0.2,0-0.3,0-0.4-0.1c-1.3-1-2.7-2-4-3.1c-0.3-0.3-0.4-0.7-0.1-1.1c0.3-0.3,0.7-0.4,1.1-0.1c1.3,1,2.6,2,3.9,3
			c0.3,0.2,0.4,0.7,0.2,1C464.9,412,464.6,412.1,464.4,412.1z M455.1,404.5c-0.2,0-0.4-0.1-0.5-0.2c-1.2-1.1-2.5-2.3-3.6-3.5
			c-0.3-0.3-0.3-0.8,0-1.1c0.3-0.3,0.8-0.3,1.1,0c1.2,1.2,2.4,2.3,3.6,3.4c0.3,0.3,0.3,0.8,0,1.1
			C455.5,404.4,455.3,404.5,455.1,404.5z M446.7,395.9c-0.2,0-0.4-0.1-0.6-0.3c-1.1-1.3-2.2-2.6-3.2-3.9c-0.3-0.3-0.2-0.8,0.1-1.1
			c0.3-0.3,0.8-0.2,1.1,0.1c1,1.3,2.1,2.6,3.2,3.8c0.3,0.3,0.2,0.8-0.1,1.1C447.1,395.8,446.9,395.9,446.7,395.9z M439.4,386.4
			c-0.2,0-0.5-0.1-0.6-0.3c-1-1.4-1.9-2.8-2.7-4.3c-0.2-0.4-0.1-0.8,0.3-1c0.4-0.2,0.8-0.1,1,0.3c0.8,1.4,1.7,2.8,2.7,4.2
			c0.2,0.3,0.1,0.8-0.2,1C439.7,386.3,439.5,386.4,439.4,386.4z M433.4,376c-0.3,0-0.5-0.2-0.7-0.4c-0.7-1.5-1.4-3.1-2-4.6
			c-0.2-0.4,0-0.8,0.4-1c0.4-0.2,0.8,0,1,0.4c0.6,1.5,1.3,3,2,4.5c0.2,0.4,0,0.8-0.4,1C433.6,376,433.5,376,433.4,376z M429.2,364.8
			c-0.3,0-0.6-0.2-0.7-0.6c-0.4-1.7-0.8-3.3-1.1-5c-0.1-0.4,0.2-0.8,0.6-0.9c0.4-0.1,0.8,0.2,0.9,0.6c0.3,1.6,0.6,3.2,1,4.8
			c0.1,0.4-0.1,0.8-0.5,0.9C429.3,364.8,429.2,364.8,429.2,364.8z M443,360.2C443,360.2,443,360.2,443,360.2c-1.7,0-3.4-0.2-5.1-0.4
			c-0.4-0.1-0.7-0.4-0.6-0.8c0.1-0.4,0.4-0.7,0.8-0.6c1.6,0.2,3.2,0.3,4.9,0.4c0.4,0,0.7,0.4,0.7,0.8
			C443.7,359.9,443.4,360.2,443,360.2z M450,359.8c-0.4,0-0.7-0.3-0.7-0.7c-0.1-0.4,0.2-0.8,0.7-0.8c1.7-0.2,3.3-0.5,4.8-0.9
			c0.4-0.1,0.8,0.1,0.9,0.5c0.1,0.4-0.1,0.8-0.5,0.9C453.5,359.3,451.8,359.6,450,359.8C450,359.8,450,359.8,450,359.8z
			 M431.2,358.3c-0.1,0-0.2,0-0.2,0c-1.6-0.5-3.2-1.2-4.7-1.9c-0.4-0.2-0.5-0.6-0.4-1c0.2-0.4,0.6-0.5,1-0.4c1.5,0.7,3,1.3,4.5,1.8
			c0.4,0.1,0.6,0.5,0.5,0.9C431.8,358.1,431.5,358.3,431.2,358.3z M461.3,356.2c-0.3,0-0.5-0.1-0.6-0.4c-0.2-0.4-0.1-0.8,0.3-1
			c1.4-0.9,2.7-1.9,3.7-3c0.3-0.3,0.8-0.3,1.1,0c0.3,0.3,0.3,0.8,0,1.1c-1.2,1.2-2.5,2.3-4,3.2C461.6,356.2,461.4,356.2,461.3,356.2
			z M427.6,352.9C427.6,352.9,427.6,352.9,427.6,352.9c-0.4,0-0.8-0.3-0.8-0.8c0-1.7,0.1-3.4,0.4-5.1c0.1-0.4,0.4-0.7,0.9-0.6
			c0.4,0.1,0.7,0.4,0.6,0.9c-0.2,1.6-0.4,3.2-0.4,4.9C428.3,352.6,428,352.9,427.6,352.9z M420.6,352.8c-0.2,0-0.3,0-0.4-0.1
			c-1.3-1-2.6-2.1-3.9-3.3c-0.3-0.3-0.3-0.8,0-1.1c0.3-0.3,0.8-0.3,1.1,0c1.2,1.1,2.4,2.2,3.7,3.2c0.3,0.2,0.4,0.7,0.2,1
			C421,352.7,420.8,352.8,420.6,352.8z M468.8,347.2c-0.1,0-0.2,0-0.2,0c-0.4-0.1-0.6-0.6-0.5-1c0.5-1.5,0.8-3.1,0.9-4.7
			c0-0.4,0.4-0.8,0.8-0.7c0.4,0,0.7,0.4,0.7,0.8c-0.1,1.8-0.4,3.5-1,5.1C469.4,347,469.1,347.2,468.8,347.2z M412.2,344.3
			c-0.2,0-0.5-0.1-0.6-0.3c-1-1.3-1.9-2.7-2.8-4.2c-0.2-0.4-0.1-0.8,0.3-1c0.4-0.2,0.8-0.1,1,0.3c0.9,1.4,1.8,2.8,2.7,4.1
			c0.2,0.3,0.2,0.8-0.2,1C412.5,344.3,412.3,344.3,412.2,344.3z M429.7,341.2c-0.1,0-0.2,0-0.3-0.1c-0.4-0.2-0.6-0.6-0.4-1
			c0.6-1.6,1.4-3.1,2.3-4.6c0.2-0.4,0.7-0.5,1-0.3c0.4,0.2,0.5,0.7,0.3,1c-0.8,1.4-1.6,2.8-2.2,4.4C430.3,341,430,341.2,429.7,341.2
			z M468.8,335.4c-0.3,0-0.6-0.2-0.7-0.5c-0.5-1.5-1.2-3-2-4.4c-0.2-0.4-0.1-0.8,0.2-1c0.4-0.2,0.8-0.1,1,0.2c0.9,1.5,1.6,3,2.2,4.7
			c0.1,0.4-0.1,0.8-0.5,0.9C468.9,335.4,468.8,335.4,468.8,335.4z M406.2,333.9c-0.3,0-0.6-0.2-0.7-0.4c-0.7-1.5-1.3-3.1-1.9-4.7
			c-0.1-0.4,0.1-0.8,0.5-1c0.4-0.1,0.8,0.1,1,0.5c0.6,1.6,1.2,3.1,1.8,4.6c0.2,0.4,0,0.8-0.4,1C406.4,333.9,406.3,333.9,406.2,333.9
			z M436.3,331.2c-0.2,0-0.4-0.1-0.5-0.2c-0.3-0.3-0.3-0.8,0-1.1c1.2-1.3,2.5-2.4,3.7-3.5c0.3-0.3,0.8-0.2,1.1,0.1
			c0.3,0.3,0.2,0.8-0.1,1.1c-1.2,1-2.4,2.1-3.6,3.3C436.7,331.1,436.5,331.2,436.3,331.2z M462,325.7c-0.2,0-0.3,0-0.4-0.1
			c-1.3-1-2.7-1.7-4.2-2.2c-0.4-0.1-0.6-0.6-0.5-0.9c0.1-0.4,0.6-0.6,0.9-0.5c1.6,0.5,3.2,1.4,4.6,2.4c0.3,0.2,0.4,0.7,0.2,1
			C462.4,325.6,462.2,325.7,462,325.7z M445.9,324.2c-0.3,0-0.6-0.2-0.7-0.5c-0.2-0.4,0-0.8,0.4-1c1.7-0.7,3.3-1.2,5-1.4
			c0.4-0.1,0.8,0.2,0.8,0.6c0.1,0.4-0.2,0.8-0.6,0.8c-1.5,0.2-3.1,0.7-4.6,1.3C446.1,324.2,446,324.2,445.9,324.2z M402.3,322.6
			c-0.3,0-0.6-0.2-0.7-0.6c-0.7-3-1-4.9-1-5c-0.1-0.4,0.2-0.8,0.7-0.8c0.4,0,0.8,0.2,0.8,0.7c0,0,0.2,1.9,1,4.9
			c0.1,0.4-0.1,0.8-0.6,0.9C402.4,322.6,402.4,322.6,402.3,322.6z"/>
	</g>
</g>
<g id="DESIGNED_BY_FREEPIK">
</g>
</svg>
